# xmcd
#
# Track frame offsets:
#	150
#	5806
#	12958
#	20256
#	36908
#	58951
#	74035
#	87922
#	102919
#	115937
#	130609
#	145914
#	167327
#	193530
#	206244
#	218891
#	231238
#	238868
#	246298
#
# Disc length: 3605 seconds
#
# Revision: 0
# Processed by: cddbd v1.5.1PL0 Copyright (c) Steve Scherf et al.
# Submitted via: dBpowerAMP V4.0
#
DISCID=160e1313
DTITLE=nemias2000 - nemias
DYEAR=1900
DGENRE=
TTITLE0=nemias2000
TTITLE1=nemias2000
TTITLE2=nemias2000
TTITLE3=nemias2000
TTITLE4=nemias2000
TTITLE5=nemias2000
TTITLE6=nemias2000
TTITLE7=nemias2000
TTITLE8=nemias2000
TTITLE9=nemias2000
TTITLE10=nemias2000
TTITLE11=nemias2000
TTITLE12=nemias2000
TTITLE13=nemias2000
TTITLE14=nemias2000
TTITLE15=nemias2000
TTITLE16=nemias2000
TTITLE17=nemias2000
TTITLE18=nemias2000
EXTD=
EXTT0=
EXTT1=
EXTT2=
EXTT3=
EXTT4=
EXTT5=
EXTT6=
EXTT7=
EXTT8=
EXTT9=
EXTT10=
EXTT11=
EXTT12=
EXTT13=
EXTT14=
EXTT15=
EXTT16=
EXTT17=
EXTT18=
PLAYORDER=
